<?xml version="1.0" encoding="UTF-8"?> <svg xmlns="http://www.w3.org/2000/svg" viewBox="0 0 229.31 77.86"><defs><style>.cls-1,.cls-5{fill:#00ae9e;}.cls-2{fill:#231f20;}.cls-3{fill:#ef4135;}.cls-3,.cls-4,.cls-5{fill-rule:evenodd;}.cls-4{fill:#ffc425;}</style></defs><g id="Layer_2" data-name="Layer 2"><g id="Layer_1-2" data-name="Layer 1"><path class="cls-1" d="M31.71,21.83V55.48h-7V21.83H10.61a3.51,3.51,0,0,0-2.49,1,3.19,3.19,0,0,0-1,2.38V55.48H0V25.19A9.5,9.5,0,0,1,3.11,18a10.48,10.48,0,0,1,7.51-3H45.91a10.54,10.54,0,0,1,7.52,3,9.57,9.57,0,0,1,3.11,7.17V55.48H49.48V25.19a3.1,3.1,0,0,0-1.07-2.38,3.58,3.58,0,0,0-2.53-1Z"></path><path class="cls-1" d="M125.1,55.48V25.19a3.14,3.14,0,0,0-1-2.38,3.51,3.51,0,0,0-2.5-1h-21.1a3.5,3.5,0,0,0-2.5,1,3.14,3.14,0,0,0-1,2.38V55.48H89.83V25.19A9.52,9.52,0,0,1,92.94,18a10.55,10.55,0,0,1,7.52-3h21.12a10.47,10.47,0,0,1,7.51,3,9.49,9.49,0,0,1,3.12,7.17V55.48Z"></path><polygon class="cls-1" points="165.05 55.48 157.95 55.48 157.95 21.55 140.29 21.55 140.29 15.05 182.69 15.05 182.69 21.55 165.05 21.55 165.05 55.48"></polygon><path class="cls-2" d="M78.33,20.21a5.15,5.15,0,1,1-5.14-5.16,5.14,5.14,0,0,1,5.14,5.16"></path><path class="cls-3" d="M68.05,35.26a5.14,5.14,0,1,1,5.13,5.15,5.14,5.14,0,0,1-5.13-5.15"></path><path class="cls-4" d="M68.08,50.33a5.15,5.15,0,1,1,5.15,5.15,5.14,5.14,0,0,1-5.15-5.15"></path><path class="cls-5" d="M78.33,5.13A5.15,5.15,0,1,1,73.19,0a5.15,5.15,0,0,1,5.14,5.13"></path><polygon class="cls-1" points="30.58 67.76 26.03 67.76 26.03 71.36 30.18 71.36 30.18 72.47 26.03 72.47 26.03 77.65 24.75 77.65 24.75 66.65 30.58 66.65 30.58 67.76"></polygon><path class="cls-1" d="M43.89,77.65h-1.6l-3.23-5H37.64v5H36.36v-11h3.11a3.73,3.73,0,0,1,2.48.76,2.58,2.58,0,0,1,.91,2.11,2.64,2.64,0,0,1-.67,1.79,3.27,3.27,0,0,1-1.82,1.07Zm-6.25-6.11h1.62A2.44,2.44,0,0,0,40.9,71a1.77,1.77,0,0,0,.63-1.39c0-1.22-.75-1.84-2.24-1.84H37.64Z"></path><polygon class="cls-1" points="54.45 77.65 48.71 77.65 48.71 66.65 54.41 66.65 54.41 67.77 49.98 67.77 49.98 71.17 54.23 71.17 54.23 72.28 49.98 72.28 49.98 76.53 54.45 76.53 54.45 77.65"></polygon><path class="cls-1" d="M66.64,74.19A4.15,4.15,0,0,1,65.86,77a3,3,0,0,1-2.36.88c-2.12,0-3.18-1.22-3.18-3.64V66.65h1.27V74.1c0,1.76.64,2.64,1.91,2.64a1.61,1.61,0,0,0,1.41-.63,3.52,3.52,0,0,0,.45-2V66.65h1.28Z"></path><polygon class="cls-1" points="78.77 77.65 77.35 77.65 73.41 68.96 73.41 77.65 72.13 77.65 72.13 66.65 73.56 66.65 77.52 75.25 77.52 66.65 78.77 66.65 78.77 77.65"></polygon><path class="cls-1" d="M84.27,66.65h2.17a4.4,4.4,0,0,1,3.46,1.47,5.85,5.85,0,0,1,1.3,4,5.79,5.79,0,0,1-1.32,4.06,4.39,4.39,0,0,1-3.39,1.44H84.27Zm1.28,9.88h.9a3,3,0,0,0,2.48-1.16,6.13,6.13,0,0,0,0-6.43,3,3,0,0,0-2.48-1.18h-.9Z"></path><polygon class="cls-1" points="102.6 77.65 96.61 77.65 96.61 66.65 97.89 66.65 97.89 76.53 102.6 76.53 102.6 77.65"></polygon><polygon class="cls-1" points="113.83 77.65 108.83 77.65 108.83 76.53 110.73 76.53 110.73 67.77 108.83 67.77 108.83 66.65 113.83 66.65 113.83 67.77 112 67.77 112 76.53 113.83 76.53 113.83 77.65"></polygon><path class="cls-1" d="M126.92,77a5.11,5.11,0,0,1-3,.9,3.83,3.83,0,0,1-3.25-1.47,6.93,6.93,0,0,1-1.11-4.24,7.15,7.15,0,0,1,1.08-4.2,3.74,3.74,0,0,1,3.28-1.51,5.93,5.93,0,0,1,1.57.2,3.88,3.88,0,0,1,1.26.54l-.42,1a4.89,4.89,0,0,0-2.41-.62,2.54,2.54,0,0,0-2.26,1.1,6.36,6.36,0,0,0-.74,3.49q0,4.59,3,4.59a5.23,5.23,0,0,0,2.6-.78Z"></path><polygon class="cls-1" points="138.5 77.65 137.22 77.65 137.22 72.19 133.46 72.19 133.46 77.65 132.18 77.65 132.18 66.65 133.46 66.65 133.46 71.07 137.22 71.07 137.22 66.65 138.5 66.65 138.5 77.65"></polygon><polygon class="cls-1" points="150.27 77.65 144.52 77.65 144.52 66.65 150.22 66.65 150.22 67.77 145.8 67.77 145.8 71.17 150.05 71.17 150.05 72.28 145.8 72.28 145.8 76.53 150.27 76.53 150.27 77.65"></polygon><path class="cls-2" d="M168.82,67.86a5.85,5.85,0,0,0-1.86-.33,2.67,2.67,0,0,0-1.63.46,1.48,1.48,0,0,0-.62,1.29c0,.67.54,1.25,1.64,1.76.81.37,1.35.63,1.61.78a4,4,0,0,1,.8.59,3,3,0,0,1,.65.91,2.71,2.71,0,0,1,.25,1.16A3.07,3.07,0,0,1,168.58,77a3.92,3.92,0,0,1-2.55.89,5.35,5.35,0,0,1-2.49-.56l.27-1.1a5.43,5.43,0,0,0,2.19.57,2.58,2.58,0,0,0,1.75-.57,2.1,2.1,0,0,0,.23-2.8,4.86,4.86,0,0,0-1.58-1c-.79-.36-1.3-.61-1.54-.74a3.32,3.32,0,0,1-.69-.55,2.81,2.81,0,0,1-.53-.79,2.47,2.47,0,0,1-.18-1,2.53,2.53,0,0,1,1-2.13,3.91,3.91,0,0,1,2.49-.76,7.44,7.44,0,0,1,2.18.33Z"></path><path class="cls-2" d="M182,77a5.11,5.11,0,0,1-3,.9,3.81,3.81,0,0,1-3.24-1.47,6.93,6.93,0,0,1-1.12-4.24,7.15,7.15,0,0,1,1.08-4.2A3.75,3.75,0,0,1,179,66.44a6.06,6.06,0,0,1,1.58.2,3.73,3.73,0,0,1,1.25.54l-.42,1a4.83,4.83,0,0,0-2.41-.62,2.54,2.54,0,0,0-2.26,1.1,6.45,6.45,0,0,0-.74,3.49q0,4.59,3,4.59a5.26,5.26,0,0,0,2.61-.78Z"></path><polygon class="cls-2" points="193.59 77.65 192.31 77.65 192.31 72.19 188.55 72.19 188.55 77.65 187.27 77.65 187.27 66.65 188.55 66.65 188.55 71.07 192.31 71.07 192.31 66.65 193.59 66.65 193.59 77.65"></polygon><path class="cls-2" d="M205.57,74.19a4.15,4.15,0,0,1-.78,2.79,3,3,0,0,1-2.35.88c-2.13,0-3.19-1.22-3.19-3.64V66.65h1.28V74.1c0,1.76.63,2.64,1.91,2.64a1.6,1.6,0,0,0,1.4-.63,3.52,3.52,0,0,0,.45-2V66.65h1.28Z"></path><polygon class="cls-2" points="217.58 77.65 211.59 77.65 211.59 66.65 212.87 66.65 212.87 76.53 217.58 76.53 217.58 77.65"></polygon><polygon class="cls-2" points="229.31 77.65 223.57 77.65 223.57 66.65 229.27 66.65 229.27 67.77 224.85 67.77 224.85 71.17 229.1 71.17 229.1 72.28 224.85 72.28 224.85 76.53 229.31 76.53 229.31 77.65"></polygon></g></g></svg> 