<?xml version="1.0" encoding="UTF-8"?><svg id="Capa_1" xmlns="http://www.w3.org/2000/svg" width="406" height="70.27" viewBox="0 0 406 70.27"><defs><style>.cls-1{fill:#824aed;}.cls-2{fill:#bc92ff;}.cls-3{fill:#282828;}</style></defs><g><path class="cls-3" d="M406,66.5V26.77c0-3.17-2.57-4.6-2.57-4.6h.02c-3.82-2.78-12.22-7.64-22.1-8.38-2.41-.18-4.46-.16-4.61-.15-17.27,.64-28.16,13.12-28.16,29.13s11.56,27.49,26.64,27.49c0,0,10.71,0,16.07-5.57v1.86c0,1.53,.75,2.51,2.78,2.51h9.53c2.64,0,2.41-2.09,2.41-2.55Zm-17.14-13.91c-1.62,2.4-4.14,4.06-7.23,4.84-2.29,.6-4.03,.48-4.03,.48-7.96,0-14.39-4.69-14.39-16.13,0-8.82,5.95-15.47,13.33-15.47h.97c5.72,0,10.42,2.59,12.57,3.84,.9,.53,1.12,1.58,1.12,1.58,1.57,8.45,.47,16.67-2.34,20.86Z"/><path class="cls-3" d="M250.61,13.08c-9.52,0-19.15,3.6-23.88,5.65-.11,.05-3.01,1.48-3.01,5.14,0,.11,0,42.35,0,42.35,0,0,0,2.82,3.27,2.82,0,0,8.2,0,8.22,0,3.27,0,3.27-2.82,3.27-2.82V27.93s5.76-2.78,12.14-2.78c7.59,0,12.57,4.06,12.57,13.28v27.81s0,2.82,3.27,2.82c0,0,8.2,0,8.22,0,3.27,0,3.27-2.82,3.27-2.82v-29.02c0-15.28-13.99-24.13-27.32-24.13Z"/><path class="cls-3" d="M96.51,2.6c0,9.77,0,54.39,0,54.5,0,3.17,2.6,4.6,2.6,4.6h-.02c3.82,2.78,12.22,7.64,22.1,8.38,2.41,.18,4.46,.17,4.61,.15,17.27-.64,28.16-13.68,28.16-29.69s-11.56-27.48-26.64-27.48c0,0-7.37-.48-16.07,3.2V2.51c0-1.39-1.12-2.51-2.51-2.51h-9.72c-1.39,0-2.51,1.12-2.51,2.51v.09Zm29.49,54.4c-.24,0-.48,0-.72,0-.08,0-.17,0-.25,0-5.73,0-10.43-2.57-12.57-3.84-.7-.4-1.02-1.08-1.15-1.71-.56-1.9-.76-4.44-.8-6.89-1.41-20.59,14.43-19.17,14.43-19.17,7.97,0,14.39,4.69,14.39,16.13,0,8.82-5.95,15.47-13.32,15.47Z"/><path class="cls-3" d="M188.46,13.08c-19.15,0-29.39,13.18-29.39,29.61,0,14.5,10.24,27.58,28.07,27.58,19.15,0,29.39-13.08,29.39-29.51,0-14.5-10.24-27.68-28.07-27.68Zm0,45.02c-9.8,0-14.09-6.49-14.09-17.34,0-9.02,4.29-15.51,12.77-15.51,9.69,0,14.09,6.49,14.09,17.44,0,8.92-4.18,15.41-12.77,15.41Z"/><path class="cls-3" d="M341.96,2.51C341.96,1.12,340.83,0,339.45,0h-9.72c-1.39,0-2.51,1.12-2.51,2.51v13.76c-8.69-3.67-16.07-3.2-16.07-3.2-15.08,0-26.64,11.36-26.64,27.48,0,16.01,10.89,29.05,28.16,29.69,.16,.01,2.21,.03,4.61-.15,9.88-.74,18.28-5.6,22.1-8.38h-.02s2.6-1.44,2.6-4.61c0-.1,0-44.72,0-54.5v-.09Zm-42.81,39.02c0-11.44,6.42-16.13,14.39-16.13,0,0,15.84-1.42,14.43,19.17-.04,2.44-.25,4.99-.8,6.89-.13,.63-.44,1.31-1.15,1.71-2.14,1.27-6.85,3.84-12.57,3.84-.09,0-.17,0-.25,0-.24,0-.48,0-.72,0-7.37,0-13.32-6.65-13.32-15.47Z"/></g><path class="cls-2" d="M23.07,41.45H.29c-.4-2.51-.4-5.16,.15-7.89,1.98-9.74,10.35-17.12,20.27-17.74,5.76-.36,11.08,1.49,15.21,4.78-6.96,4.61-11.82,12.14-12.84,20.84Z"/><path class="cls-1" d="M82.24,59.21c0-17.77,0-40.38-22.58-45.61-8.55-1.98-16.94,2.63-23.75,7.15,7.52,6,14.02,15.85,12.34,38.36l33.99,.1Z"/></svg>